<svg width="21" height="19" viewBox="0 0 21 19" fill="none" xmlns="http://www.w3.org/2000/svg">
<path d="M18.8333 15.2292C19.2346 15.2294 19.6204 15.3839 19.9108 15.6609C20.2012 15.9378 20.374 16.3158 20.3932 16.7166C20.4125 17.1174 20.2769 17.5103 20.0144 17.8138C19.7519 18.1173 19.3827 18.3082 18.9833 18.3469L18.8333 18.3542H2.16666C1.76539 18.354 1.37958 18.1994 1.08917 17.9225C0.798762 17.6456 0.626019 17.2676 0.606735 16.8668C0.587452 16.466 0.723106 16.0731 0.985589 15.7696C1.24807 15.4661 1.61726 15.2752 2.01666 15.2365L2.16666 15.2292H18.8333ZM18.8333 7.93751C19.2477 7.93751 19.6452 8.10213 19.9382 8.39516C20.2312 8.68818 20.3958 9.08561 20.3958 9.50001C20.3958 9.91441 20.2312 10.3118 19.9382 10.6049C19.6452 10.8979 19.2477 11.0625 18.8333 11.0625H2.16666C1.75226 11.0625 1.35483 10.8979 1.0618 10.6049C0.768777 10.3118 0.604156 9.91441 0.604156 9.50001C0.604156 9.08561 0.768777 8.68818 1.0618 8.39516C1.35483 8.10213 1.75226 7.93751 2.16666 7.93751H18.8333ZM18.8333 0.645844C19.2477 0.645844 19.6452 0.810464 19.9382 1.10349C20.2312 1.39651 20.3958 1.79394 20.3958 2.20834C20.3958 2.62274 20.2312 3.02017 19.9382 3.3132C19.6452 3.60622 19.2477 3.77084 18.8333 3.77084H2.16666C1.75226 3.77084 1.35483 3.60622 1.0618 3.3132C0.768777 3.02017 0.604156 2.62274 0.604156 2.20834C0.604156 1.79394 0.768777 1.39651 1.0618 1.10349C1.35483 0.810464 1.75226 0.645844 2.16666 0.645844H18.8333Z" fill="black"/>
</svg>
