<svg width="20" height="20" viewBox="0 0 20 20" fill="none" xmlns="http://www.w3.org/2000/svg">
<rect width="20" height="20" fill="#953E3E"/>
<g filter="url(#filter0_ddd_0_1)">
<path d="M-25 -253H288V547H-25V-253Z" fill="white"/>
</g>
<g filter="url(#filter1_ddd_0_1)">
<rect x="-5" y="-5" width="30" height="30" rx="5" fill="white"/>
</g>
<g clip-path="url(#clip0_0_1)">
<path fill-rule="evenodd" clip-rule="evenodd" d="M3.03704 0.370377H2.96296C2.6237 0.370377 2.33185 0.370377 2.07407 0.431117C1.67502 0.526473 1.31015 0.730445 1.0199 1.02043C0.729645 1.31042 0.525343 1.67511 0.429628 2.07408C0.370369 2.33186 0.370369 2.62223 0.370369 2.96297V6.66667C0.370369 7.00593 0.370369 7.29778 0.43111 7.55556C0.526465 7.95462 0.730438 8.31949 1.02043 8.60974C1.31042 8.89999 1.6751 9.10429 2.07407 9.20001C2.33185 9.25927 2.62222 9.25927 2.96296 9.25927H6.66667C7.00592 9.25927 7.29778 9.25927 7.55555 9.19853C7.95461 9.10317 8.31948 8.8992 8.60973 8.60921C8.89998 8.31922 9.10428 7.95453 9.2 7.55556C9.25926 7.29778 9.25926 7.00741 9.25926 6.66667V2.96297C9.25926 2.62371 9.25926 2.33186 9.19852 2.07408C9.10316 1.67502 8.89919 1.31015 8.6092 1.0199C8.31921 0.729652 7.95453 0.525351 7.55555 0.429636C7.29778 0.370377 7.00741 0.370377 6.66667 0.370377H3.03704ZM2.41926 1.8726C2.48296 1.85778 2.58222 1.85186 3.03704 1.85186H6.59259C7.04889 1.85186 7.14667 1.8563 7.21037 1.8726C7.34345 1.90442 7.46512 1.97249 7.56187 2.06924C7.65863 2.166 7.72669 2.28767 7.75852 2.42075C7.77333 2.48297 7.77778 2.58075 7.77778 3.03704V6.5926C7.77778 7.0489 7.77333 7.14667 7.75704 7.21038C7.72521 7.34346 7.65715 7.46512 7.56039 7.56188C7.46363 7.65864 7.34197 7.7267 7.20889 7.75852C7.14815 7.77186 7.05037 7.77778 6.59259 7.77778H3.03704C2.58074 7.77778 2.48296 7.77334 2.41926 7.75704C2.28618 7.72522 2.16451 7.65715 2.06775 7.5604C1.971 7.46364 1.90293 7.34198 1.87111 7.2089C1.85778 7.14815 1.85185 7.05038 1.85185 6.5926V3.03704C1.85185 2.58075 1.85629 2.48297 1.87259 2.41927C1.90442 2.28618 1.97248 2.16452 2.06924 2.06776C2.16599 1.97101 2.28766 1.90294 2.42074 1.87112L2.41926 1.8726ZM13.4074 0.370377H13.3333C12.9941 0.370377 12.7022 0.370377 12.4444 0.431117C12.0454 0.526473 11.6805 0.730445 11.3903 1.02043C11.1 1.31042 10.8957 1.67511 10.8 2.07408C10.7407 2.33186 10.7407 2.62223 10.7407 2.96297V6.66667C10.7407 7.00593 10.7407 7.29778 10.8015 7.55556C10.8968 7.95462 11.1008 8.31949 11.3908 8.60974C11.6808 8.89999 12.0455 9.10429 12.4444 9.20001C12.7022 9.25927 12.9926 9.25927 13.3333 9.25927H17.037C17.3763 9.25927 17.6681 9.25927 17.9259 9.19853C18.325 9.10317 18.6899 8.8992 18.9801 8.60921C19.2704 8.31922 19.4747 7.95453 19.5704 7.55556C19.6296 7.29778 19.6296 7.00741 19.6296 6.66667V2.96297C19.6296 2.62371 19.6296 2.33186 19.5689 2.07408C19.4735 1.67502 19.2696 1.31015 18.9796 1.0199C18.6896 0.729652 18.3249 0.525351 17.9259 0.429636C17.6681 0.370377 17.3778 0.370377 17.037 0.370377H13.4074ZM12.7896 1.8726C12.8533 1.85778 12.9526 1.85186 13.4074 1.85186H16.963C17.4193 1.85186 17.517 1.8563 17.5807 1.8726C17.7138 1.90442 17.8355 1.97249 17.9322 2.06924C18.029 2.166 18.0971 2.28767 18.1289 2.42075C18.1437 2.48297 18.1481 2.58075 18.1481 3.03704V6.5926C18.1481 7.0489 18.1422 7.14667 18.1274 7.21038C18.0956 7.34346 18.0275 7.46512 17.9308 7.56188C17.834 7.65864 17.7123 7.7267 17.5793 7.75852C17.517 7.77334 17.4193 7.77778 16.963 7.77778H13.4074C12.9511 7.77778 12.8533 7.77334 12.7896 7.75704C12.6565 7.72522 12.5349 7.65715 12.4381 7.5604C12.3414 7.46364 12.2733 7.34198 12.2415 7.2089C12.2281 7.14815 12.2222 7.05038 12.2222 6.5926V3.03704C12.2222 2.58075 12.2267 2.48297 12.243 2.41927C12.2748 2.28618 12.3429 2.16452 12.4396 2.06776C12.5364 1.97101 12.658 1.90294 12.7911 1.87112L12.7896 1.8726ZM2.96296 10.7407H6.66667C7.00592 10.7407 7.29778 10.7407 7.55555 10.8015C7.95461 10.8968 8.31948 11.1008 8.60973 11.3908C8.89998 11.6808 9.10428 12.0455 9.2 12.4445C9.25926 12.7022 9.25926 12.9926 9.25926 13.3333V17.037C9.25926 17.3763 9.25926 17.6682 9.19852 17.9259C9.10316 18.325 8.89919 18.6899 8.6092 18.9801C8.31921 19.2704 7.95453 19.4747 7.55555 19.5704C7.29778 19.6296 7.00741 19.6296 6.66667 19.6296H2.96296C2.6237 19.6296 2.33185 19.6296 2.07407 19.5689C1.67502 19.4735 1.31015 19.2696 1.0199 18.9796C0.729645 18.6896 0.525343 18.3249 0.429628 17.9259C0.370369 17.6682 0.370369 17.3778 0.370369 17.037V13.3333C0.370369 12.9941 0.370369 12.7022 0.43111 12.4445C0.526465 12.0454 0.730438 11.6805 1.02043 11.3903C1.31042 11.1 1.6751 10.8957 2.07407 10.8C2.33185 10.7407 2.62222 10.7407 2.96296 10.7407ZM3.03704 12.2222C2.58074 12.2222 2.48296 12.2267 2.41926 12.243C2.28618 12.2748 2.16451 12.3429 2.06775 12.4396C1.971 12.5364 1.90293 12.658 1.87111 12.7911C1.85778 12.8519 1.85185 12.9496 1.85185 13.4074V16.963C1.85185 17.4193 1.85629 17.517 1.87259 17.5807C1.90442 17.7138 1.97248 17.8355 2.06924 17.9323C2.16599 18.029 2.28766 18.0971 2.42074 18.1289C2.48296 18.1437 2.58074 18.1482 3.03704 18.1482H6.59259C7.04889 18.1482 7.14667 18.1422 7.21037 18.1274C7.34345 18.0956 7.46512 18.0275 7.56187 17.9308C7.65863 17.834 7.72669 17.7123 7.75852 17.5793C7.77333 17.517 7.77778 17.4193 7.77778 16.963V13.4074C7.77778 12.9511 7.77333 12.8533 7.75704 12.7896C7.72521 12.6566 7.65715 12.5349 7.56039 12.4381C7.46363 12.3414 7.34197 12.2733 7.20889 12.2415C7.14815 12.2282 7.05037 12.2222 6.59259 12.2222H3.03704ZM13.4074 10.7407H13.3333C12.9941 10.7407 12.7022 10.7407 12.4444 10.8015C12.0454 10.8968 11.6805 11.1008 11.3903 11.3908C11.1 11.6808 10.8957 12.0455 10.8 12.4445C10.7407 12.7022 10.7407 12.9926 10.7407 13.3333V17.037C10.7407 17.3763 10.7407 17.6682 10.8015 17.9259C10.8968 18.325 11.1008 18.6899 11.3908 18.9801C11.6808 19.2704 12.0455 19.4747 12.4444 19.5704C12.7022 19.6311 12.9941 19.6311 13.3333 19.6311H17.037C17.3763 19.6311 17.6681 19.6311 17.9259 19.5704C18.3247 19.4748 18.6893 19.2707 18.9792 18.9807C19.2692 18.6908 19.4733 18.3262 19.5689 17.9274C19.6296 17.6696 19.6296 17.3778 19.6296 17.0385V13.3333C19.6296 12.9941 19.6296 12.7022 19.5689 12.4445C19.4735 12.0454 19.2696 11.6805 18.9796 11.3903C18.6896 11.1 18.3249 10.8957 17.9259 10.8C17.6681 10.7407 17.3778 10.7407 17.037 10.7407H13.4074ZM12.7896 12.243C12.8533 12.2282 12.9526 12.2222 13.4074 12.2222H16.963C17.4193 12.2222 17.517 12.2267 17.5807 12.243C17.7138 12.2748 17.8355 12.3429 17.9322 12.4396C18.029 12.5364 18.0971 12.658 18.1289 12.7911C18.1437 12.8533 18.1481 12.9511 18.1481 13.4074V16.963C18.1481 17.4193 18.1422 17.517 18.1274 17.5807C18.0956 17.7138 18.0275 17.8355 17.9308 17.9323C17.834 18.029 17.7123 18.0971 17.5793 18.1289C17.517 18.1437 17.4193 18.1482 16.963 18.1482H13.4074C12.9511 18.1482 12.8533 18.1422 12.7896 18.1274C12.6565 18.0956 12.5349 18.0275 12.4381 17.9308C12.3414 17.834 12.2733 17.7123 12.2415 17.5793C12.2281 17.5185 12.2222 17.4207 12.2222 16.963V13.4074C12.2222 12.9511 12.2267 12.8533 12.243 12.7896C12.2748 12.6566 12.3429 12.5349 12.4396 12.4381C12.5364 12.3414 12.658 12.2733 12.7911 12.2415L12.7896 12.243Z" fill="#AF0A59"/>
</g>
<g filter="url(#filter2_d_0_1)">
<rect x="-5" y="45" width="30" height="30" rx="5" fill="white"/>
</g>
<defs>
<filter id="filter0_ddd_0_1" x="-63" y="-291" width="393" height="880" filterUnits="userSpaceOnUse" color-interpolation-filters="sRGB">
<feFlood flood-opacity="0" result="BackgroundImageFix"/>
<feColorMatrix in="SourceAlpha" type="matrix" values="0 0 0 0 0 0 0 0 0 0 0 0 0 0 0 0 0 0 127 0" result="hardAlpha"/>
<feOffset dx="2" dy="2"/>
<feGaussianBlur stdDeviation="2.5"/>
<feComposite in2="hardAlpha" operator="out"/>
<feColorMatrix type="matrix" values="0 0 0 0 0 0 0 0 0 0 0 0 0 0 0 0 0 0 0.25 0"/>
<feBlend mode="normal" in2="BackgroundImageFix" result="effect1_dropShadow_0_1"/>
<feColorMatrix in="SourceAlpha" type="matrix" values="0 0 0 0 0 0 0 0 0 0 0 0 0 0 0 0 0 0 127 0" result="hardAlpha"/>
<feOffset dx="2" dy="2"/>
<feGaussianBlur stdDeviation="20"/>
<feComposite in2="hardAlpha" operator="out"/>
<feColorMatrix type="matrix" values="0 0 0 0 0 0 0 0 0 0 0 0 0 0 0 0 0 0 0.25 0"/>
<feBlend mode="normal" in2="effect1_dropShadow_0_1" result="effect2_dropShadow_0_1"/>
<feColorMatrix in="SourceAlpha" type="matrix" values="0 0 0 0 0 0 0 0 0 0 0 0 0 0 0 0 0 0 127 0" result="hardAlpha"/>
<feOffset dx="1" dy="1"/>
<feGaussianBlur stdDeviation="2.5"/>
<feComposite in2="hardAlpha" operator="out"/>
<feColorMatrix type="matrix" values="0 0 0 0 0 0 0 0 0 0 0 0 0 0 0 0 0 0 0.25 0"/>
<feBlend mode="normal" in2="effect2_dropShadow_0_1" result="effect3_dropShadow_0_1"/>
<feBlend mode="normal" in="SourceGraphic" in2="effect3_dropShadow_0_1" result="shape"/>
</filter>
<filter id="filter1_ddd_0_1" x="-35" y="-31" width="90" height="90" filterUnits="userSpaceOnUse" color-interpolation-filters="sRGB">
<feFlood flood-opacity="0" result="BackgroundImageFix"/>
<feColorMatrix in="SourceAlpha" type="matrix" values="0 0 0 0 0 0 0 0 0 0 0 0 0 0 0 0 0 0 127 0" result="hardAlpha"/>
<feOffset dy="4"/>
<feGaussianBlur stdDeviation="15"/>
<feComposite in2="hardAlpha" operator="out"/>
<feColorMatrix type="matrix" values="0 0 0 0 0 0 0 0 0 0 0 0 0 0 0 0 0 0 0.25 0"/>
<feBlend mode="normal" in2="BackgroundImageFix" result="effect1_dropShadow_0_1"/>
<feColorMatrix in="SourceAlpha" type="matrix" values="0 0 0 0 0 0 0 0 0 0 0 0 0 0 0 0 0 0 127 0" result="hardAlpha"/>
<feOffset dx="1" dy="1"/>
<feGaussianBlur stdDeviation="5"/>
<feComposite in2="hardAlpha" operator="out"/>
<feColorMatrix type="matrix" values="0 0 0 0 0 0 0 0 0 0 0 0 0 0 0 0 0 0 0.25 0"/>
<feBlend mode="normal" in2="effect1_dropShadow_0_1" result="effect2_dropShadow_0_1"/>
<feColorMatrix in="SourceAlpha" type="matrix" values="0 0 0 0 0 0 0 0 0 0 0 0 0 0 0 0 0 0 127 0" result="hardAlpha"/>
<feOffset dx="2" dy="2"/>
<feGaussianBlur stdDeviation="2"/>
<feComposite in2="hardAlpha" operator="out"/>
<feColorMatrix type="matrix" values="0 0 0 0 0 0 0 0 0 0 0 0 0 0 0 0 0 0 0.25 0"/>
<feBlend mode="normal" in2="effect2_dropShadow_0_1" result="effect3_dropShadow_0_1"/>
<feBlend mode="normal" in="SourceGraphic" in2="effect3_dropShadow_0_1" result="shape"/>
</filter>
<filter id="filter2_d_0_1" x="-35" y="19" width="90" height="90" filterUnits="userSpaceOnUse" color-interpolation-filters="sRGB">
<feFlood flood-opacity="0" result="BackgroundImageFix"/>
<feColorMatrix in="SourceAlpha" type="matrix" values="0 0 0 0 0 0 0 0 0 0 0 0 0 0 0 0 0 0 127 0" result="hardAlpha"/>
<feOffset dy="4"/>
<feGaussianBlur stdDeviation="15"/>
<feComposite in2="hardAlpha" operator="out"/>
<feColorMatrix type="matrix" values="0 0 0 0 0 0 0 0 0 0 0 0 0 0 0 0 0 0 0.25 0"/>
<feBlend mode="normal" in2="BackgroundImageFix" result="effect1_dropShadow_0_1"/>
<feBlend mode="normal" in="SourceGraphic" in2="effect1_dropShadow_0_1" result="shape"/>
</filter>
<clipPath id="clip0_0_1">
<rect width="20" height="20" fill="white"/>
</clipPath>
</defs>
</svg>
