<svg width="34" height="38" viewBox="0 0 34 38" fill="none" xmlns="http://www.w3.org/2000/svg">
<g filter="url(#filter0_ddd_670_993)">
<path d="M20.6956 26.7742C20.6958 27.4799 20.4293 28.1595 19.9495 28.6769C19.4697 29.1944 18.812 29.5113 18.1084 29.5642L17.8986 29.5712H15.1016C14.396 29.5714 13.7163 29.3049 13.1989 28.8251C12.6815 28.3453 12.3646 27.6877 12.3116 26.984L12.3047 26.7742H20.6956ZM16.5001 3C19.0383 2.99996 21.4773 3.98578 23.3027 5.74952C25.128 7.51327 26.1969 9.91703 26.2839 12.4538L26.2895 12.7894V18.0533L28.8375 23.1494C28.9487 23.3717 29.0044 23.6177 28.9997 23.8663C28.9951 24.1149 28.9302 24.3586 28.8108 24.5766C28.6913 24.7947 28.5208 24.9805 28.3138 25.1182C28.1068 25.2559 27.8695 25.3414 27.6223 25.3674L27.4614 25.3758H5.53879C5.29009 25.3758 5.04508 25.3156 4.82475 25.2002C4.60443 25.0849 4.41536 24.9178 4.27374 24.7134C4.13213 24.5089 4.0422 24.2732 4.01165 24.0264C3.9811 23.7796 4.01085 23.529 4.09835 23.2962L4.16268 23.1494L6.71072 18.0533V12.7894C6.71072 10.1931 7.7421 7.70311 9.57796 5.86725C11.4138 4.03138 13.9038 3 16.5001 3Z" fill="white"/>
<path d="M15.1016 29.0712H15.1015C14.522 29.0714 13.9638 28.8525 13.5389 28.4585C13.1955 28.1401 12.9597 27.7263 12.8588 27.2742H20.1407C20.0529 27.6688 19.8617 28.0362 19.5829 28.337C19.1911 28.7595 18.6549 29.0192 18.0807 29.0649L17.8903 29.0712H15.1016ZM25.7895 18.0533V18.1713L25.8423 18.2769L28.3903 23.373L28.3903 23.373C28.4654 23.5231 28.503 23.6891 28.4998 23.8569C28.4967 24.0247 28.4529 24.1892 28.3723 24.3364C28.2916 24.4835 28.1765 24.609 28.0368 24.7019C27.9004 24.7927 27.7445 24.8498 27.5818 24.8688L27.4484 24.8758H5.53879H5.53864C5.37078 24.8758 5.2054 24.8351 5.05668 24.7573C4.90797 24.6794 4.78035 24.5667 4.68477 24.4287C4.58918 24.2907 4.52848 24.1315 4.50786 23.965C4.48774 23.8023 4.50639 23.6373 4.56221 23.4834L4.61557 23.3616L7.15793 18.2769L7.21072 18.1713V18.0533V12.7894C7.21072 10.3257 8.18942 7.9629 9.93152 6.2208C11.6736 4.4787 14.0364 3.5 16.5001 3.5C18.9087 3.49996 21.2231 4.43543 22.9552 6.10909C24.6863 7.78173 25.7004 10.061 25.7841 12.4665L25.7895 12.7936V18.0533Z" stroke="#D5C5C5"/>
</g>
<defs>
<filter id="filter0_ddd_670_993" x="0" y="0" width="34" height="37.5712" filterUnits="userSpaceOnUse" color-interpolation-filters="sRGB">
<feFlood flood-opacity="0" result="BackgroundImageFix"/>
<feColorMatrix in="SourceAlpha" type="matrix" values="0 0 0 0 0 0 0 0 0 0 0 0 0 0 0 0 0 0 127 0" result="hardAlpha"/>
<feOffset dx="1" dy="1"/>
<feGaussianBlur stdDeviation="2"/>
<feComposite in2="hardAlpha" operator="out"/>
<feColorMatrix type="matrix" values="0 0 0 0 0 0 0 0 0 0 0 0 0 0 0 0 0 0 0.25 0"/>
<feBlend mode="normal" in2="BackgroundImageFix" result="effect1_dropShadow_670_993"/>
<feColorMatrix in="SourceAlpha" type="matrix" values="0 0 0 0 0 0 0 0 0 0 0 0 0 0 0 0 0 0 127 0" result="hardAlpha"/>
<feOffset dy="4"/>
<feGaussianBlur stdDeviation="2"/>
<feComposite in2="hardAlpha" operator="out"/>
<feColorMatrix type="matrix" values="0 0 0 0 0 0 0 0 0 0 0 0 0 0 0 0 0 0 0.25 0"/>
<feBlend mode="normal" in2="effect1_dropShadow_670_993" result="effect2_dropShadow_670_993"/>
<feColorMatrix in="SourceAlpha" type="matrix" values="0 0 0 0 0 0 0 0 0 0 0 0 0 0 0 0 0 0 127 0" result="hardAlpha"/>
<feOffset dy="4"/>
<feGaussianBlur stdDeviation="2"/>
<feComposite in2="hardAlpha" operator="out"/>
<feColorMatrix type="matrix" values="0 0 0 0 0 0 0 0 0 0 0 0 0 0 0 0 0 0 0.25 0"/>
<feBlend mode="normal" in2="effect2_dropShadow_670_993" result="effect3_dropShadow_670_993"/>
<feBlend mode="normal" in="SourceGraphic" in2="effect3_dropShadow_670_993" result="shape"/>
</filter>
</defs>
</svg>
