<svg width="20" height="20" viewBox="0 0 20 20" fill="none" xmlns="http://www.w3.org/2000/svg">
<path fill-rule="evenodd" clip-rule="evenodd" d="M10 6.875C9.1712 6.875 8.37634 7.20424 7.79029 7.79029C7.20424 8.37634 6.875 9.1712 6.875 10C6.875 10.8288 7.20424 11.6237 7.79029 12.2097C8.37634 12.7958 9.1712 13.125 10 13.125C10.8288 13.125 11.6237 12.7958 12.2097 12.2097C12.7958 11.6237 13.125 10.8288 13.125 10C13.125 9.1712 12.7958 8.37634 12.2097 7.79029C11.6237 7.20424 10.8288 6.875 10 6.875ZM8.125 10C8.125 9.50272 8.32254 9.02581 8.67417 8.67417C9.02581 8.32254 9.50272 8.125 10 8.125C10.4973 8.125 10.9742 8.32254 11.3258 8.67417C11.6775 9.02581 11.875 9.50272 11.875 10C11.875 10.4973 11.6775 10.9742 11.3258 11.3258C10.9742 11.6775 10.4973 11.875 10 11.875C9.50272 11.875 9.02581 11.6775 8.67417 11.3258C8.32254 10.9742 8.125 10.4973 8.125 10Z" fill="white"/>
<path fill-rule="evenodd" clip-rule="evenodd" d="M9.97917 1.04167C9.60833 1.04167 9.29917 1.04167 9.04583 1.05834C8.78689 1.06912 8.5315 1.12262 8.29 1.21667C8.01188 1.33175 7.75914 1.50048 7.54624 1.71324C7.33334 1.92601 7.16443 2.17862 7.04917 2.45667C6.92833 2.74834 6.89583 3.05667 6.8825 3.39167C6.88117 3.51419 6.84873 3.63436 6.78824 3.74091C6.72775 3.84746 6.64119 3.9369 6.53667 4.00084C6.42907 4.05959 6.3083 4.09003 6.18571 4.0893C6.06312 4.08857 5.94273 4.0567 5.83583 3.99667C5.53917 3.84 5.25583 3.71417 4.9425 3.67251C4.64412 3.63326 4.34093 3.65316 4.05025 3.73109C3.75956 3.80902 3.48707 3.94344 3.24833 4.12667C3.04648 4.28907 2.87276 4.48362 2.73417 4.70251C2.5925 4.91417 2.4375 5.18167 2.2525 5.50251L2.23167 5.53917C2.04583 5.86 1.89167 6.1275 1.78 6.35584C1.66333 6.59417 1.57167 6.82917 1.53833 7.08917C1.45883 7.69166 1.6219 8.30106 1.99167 8.78334C2.18417 9.03417 2.435 9.21667 2.71833 9.39501C2.82397 9.45746 2.91198 9.54575 2.97408 9.65159C3.03618 9.75743 3.07034 9.87733 3.07333 10C3.07034 10.1227 3.03618 10.2426 2.97408 10.3484C2.91198 10.4543 2.82397 10.5426 2.71833 10.605C2.435 10.7833 2.185 10.9658 1.99167 11.2167C1.80843 11.4554 1.67401 11.7279 1.59609 12.0186C1.51816 12.3093 1.49825 12.6125 1.5375 12.9108C1.57167 13.1708 1.6625 13.4058 1.77917 13.6442C1.89167 13.8725 2.04583 14.14 2.23167 14.4608L2.2525 14.4975C2.4375 14.8183 2.5925 15.0858 2.73417 15.2975C2.88167 15.5167 3.04 15.7142 3.24833 15.8725C3.48701 16.0559 3.75947 16.1905 4.05016 16.2685C4.34085 16.3466 4.64407 16.3666 4.9425 16.3275C5.25583 16.2858 5.53917 16.1608 5.83583 16.0033C5.9426 15.9434 6.06285 15.9115 6.1853 15.9108C6.30774 15.9101 6.42836 15.9405 6.53583 15.9992C6.64093 16.0626 6.72804 16.1519 6.78887 16.2585C6.8497 16.3652 6.88222 16.4856 6.88333 16.6083C6.89583 16.9433 6.92833 17.2517 7.05 17.5433C7.16508 17.8215 7.33381 18.0742 7.54657 18.2871C7.75934 18.5 8.01195 18.6689 8.29 18.7842C8.53167 18.8842 8.78167 18.9233 9.04583 18.9408C9.29917 18.9583 9.60833 18.9583 9.97917 18.9583H10.0208C10.3917 18.9583 10.7008 18.9583 10.9542 18.9417C11.2192 18.9233 11.4683 18.8842 11.71 18.7833C11.9881 18.6683 12.2409 18.4995 12.4538 18.2868C12.6667 18.074 12.8356 17.8214 12.9508 17.5433C13.0717 17.2517 13.1042 16.9433 13.1175 16.6083C13.1187 16.4857 13.1511 16.3653 13.2116 16.2586C13.2721 16.1519 13.3587 16.0623 13.4633 15.9983C13.571 15.9397 13.6918 15.9094 13.8144 15.9103C13.937 15.9112 14.0573 15.9432 14.1642 16.0033C14.4608 16.16 14.7442 16.2858 15.0575 16.3267C15.66 16.4062 16.2694 16.2431 16.7517 15.8733C16.96 15.7133 17.1183 15.5167 17.2658 15.2975C17.4075 15.0858 17.5625 14.8183 17.7475 14.4975L17.7683 14.4608C17.9542 14.14 18.1083 13.8725 18.22 13.6442C18.3367 13.4058 18.4283 13.17 18.4617 12.9108C18.5412 12.3083 18.3781 11.6989 18.0083 11.2167C17.8158 10.9658 17.565 10.7833 17.2817 10.605C17.176 10.5426 17.088 10.4543 17.0259 10.3484C16.9638 10.2426 16.9297 10.1227 16.9267 10C16.9267 9.76834 17.0533 9.53834 17.2817 9.39501C17.565 9.21667 17.815 9.03417 18.0083 8.78334C18.1916 8.5446 18.326 8.27211 18.4039 7.98143C18.4818 7.69074 18.5017 7.38755 18.4625 7.08917C18.4228 6.8331 18.3412 6.58532 18.2208 6.35584C18.0786 6.07896 17.9277 5.80661 17.7683 5.53917L17.7475 5.50251C17.5953 5.23091 17.4346 4.96412 17.2658 4.70251C17.1272 4.48385 16.9535 4.28958 16.7517 4.12751C16.513 3.94412 16.2405 3.80955 15.9498 3.73149C15.6592 3.65342 15.3559 3.63337 15.0575 3.67251C14.7442 3.71417 14.4608 3.83917 14.1642 3.99667C14.0574 4.05655 13.9371 4.08834 13.8147 4.08907C13.6923 4.0898 13.5717 4.05944 13.4642 4.00084C13.3593 3.9371 13.2724 3.84775 13.2117 3.74119C13.1509 3.63462 13.1182 3.51435 13.1167 3.39167C13.1042 3.05667 13.0717 2.74834 12.95 2.45667C12.8349 2.17855 12.6662 1.92581 12.4534 1.71291C12.2407 1.50001 11.988 1.3311 11.71 1.21584C11.4683 1.11584 11.2183 1.07667 10.9542 1.05917C10.7008 1.04167 10.3917 1.04167 10.0208 1.04167H9.97917ZM8.76833 2.37084C8.8325 2.34417 8.93 2.32001 9.13083 2.30584C9.33667 2.29167 9.60333 2.29167 10 2.29167C10.3967 2.29167 10.6633 2.29167 10.8692 2.30584C11.07 2.32001 11.1675 2.34417 11.2317 2.37084C11.4875 2.47667 11.69 2.67917 11.7958 2.93501C11.8292 3.01501 11.8567 3.14084 11.8675 3.43834C11.8925 4.09834 12.2333 4.73417 12.8383 5.08334C13.4433 5.43334 14.1642 5.41001 14.7483 5.10167C15.0117 4.96251 15.1342 4.92334 15.2208 4.9125C15.4946 4.87633 15.7716 4.95036 15.9908 5.11834C16.0458 5.16084 16.1158 5.23334 16.2283 5.4C16.3442 5.57167 16.4775 5.80251 16.6758 6.14584C16.8742 6.48917 17.0067 6.72084 17.0975 6.90584C17.1867 7.08667 17.2142 7.18334 17.2225 7.2525C17.2587 7.52631 17.1846 7.80327 17.0167 8.0225C16.9633 8.09167 16.8683 8.17834 16.6167 8.33667C16.0567 8.68834 15.6767 9.30167 15.6767 10C15.6767 10.6983 16.0567 11.3117 16.6167 11.6633C16.8683 11.8217 16.9633 11.9083 17.0167 11.9775C17.185 12.1967 17.2583 12.4733 17.2225 12.7475C17.2142 12.8167 17.1858 12.9142 17.0975 13.0942C17.0067 13.28 16.8742 13.5108 16.6758 13.8542C16.4775 14.1975 16.3433 14.4283 16.2283 14.6C16.1158 14.7667 16.0458 14.8392 15.9908 14.8817C15.7716 15.0496 15.4946 15.1237 15.2208 15.0875C15.1342 15.0767 15.0125 15.0375 14.7483 14.8983C14.165 14.59 13.4433 14.5667 12.8383 14.9158C12.2333 15.2658 11.8925 15.9017 11.8675 16.5617C11.8567 16.8592 11.8292 16.985 11.7958 17.065C11.7435 17.1915 11.6667 17.3064 11.5699 17.4032C11.4731 17.5 11.3582 17.5768 11.2317 17.6292C11.1675 17.6558 11.07 17.68 10.8692 17.6942C10.6633 17.7083 10.3967 17.7083 10 17.7083C9.60333 17.7083 9.33667 17.7083 9.13083 17.6942C8.93 17.68 8.8325 17.6558 8.76833 17.6292C8.64184 17.5768 8.5269 17.5 8.4301 17.4032C8.33329 17.3064 8.25652 17.1915 8.20417 17.065C8.17083 16.985 8.14333 16.8592 8.1325 16.5617C8.1075 15.9017 7.76667 15.2658 7.16167 14.9167C6.55667 14.5667 5.83583 14.59 5.25167 14.8983C4.98833 15.0375 4.86583 15.0767 4.77917 15.0875C4.50536 15.1237 4.2284 15.0496 4.00917 14.8817C3.95417 14.8392 3.88417 14.7667 3.77167 14.6C3.61493 14.356 3.46569 14.1073 3.32417 13.8542C3.12583 13.5108 2.99333 13.2792 2.9025 13.0942C2.81333 12.9133 2.78583 12.8167 2.7775 12.7475C2.74132 12.4737 2.81536 12.1967 2.98333 11.9775C3.03667 11.9083 3.13167 11.8217 3.38333 11.6633C3.94333 11.3117 4.32333 10.6983 4.32333 10C4.32333 9.30167 3.94333 8.68834 3.38333 8.33667C3.13167 8.17834 3.03667 8.09167 2.98333 8.0225C2.81536 7.80327 2.74132 7.52631 2.7775 7.2525C2.78583 7.18334 2.81417 7.08584 2.9025 6.90584C2.99333 6.72 3.12583 6.48917 3.32417 6.14584C3.5225 5.80251 3.65667 5.57167 3.77167 5.4C3.88417 5.23334 3.95417 5.16084 4.00917 5.11834C4.2284 4.95036 4.50536 4.87633 4.77917 4.9125C4.86583 4.92334 4.9875 4.96251 5.25167 5.10167C5.835 5.41001 6.55667 5.43334 7.16167 5.08334C7.76667 4.73417 8.1075 4.09834 8.1325 3.43834C8.14333 3.14084 8.17083 3.01501 8.20417 2.93501C8.31 2.67917 8.5125 2.47667 8.76833 2.37084Z" fill="white"/>
</svg>
