<svg width="20" height="20" viewBox="0 0 20 20" fill="none" xmlns="http://www.w3.org/2000/svg">
<path d="M14.2969 3.04687L14.2969 4.41992C14.2969 4.51367 14.3379 4.60155 14.4102 4.66015C14.5762 4.79687 14.7363 4.94335 14.8887 5.09765C15.5204 5.72872 16.0238 6.47622 16.3711 7.29882C16.7311 8.15106 16.9157 9.06705 16.9141 9.99218C16.9141 10.9277 16.7305 11.834 16.3711 12.6855C16.0238 13.5081 15.5204 14.2556 14.8887 14.8867C14.2591 15.5189 13.5129 16.023 12.6914 16.3711C11.8398 16.7324 10.9355 16.9141 10 16.9141C9.06445 16.9141 8.16016 16.7305 7.30859 16.3711C6.48633 16.0234 5.74609 15.5234 5.11133 14.8867C4.47656 14.25 3.97656 13.5098 3.62891 12.6855C3.26953 11.834 3.08594 10.9277 3.08594 9.99218C3.08594 9.05663 3.26758 8.15038 3.62891 7.29882C3.97656 6.4746 4.47656 5.73437 5.11133 5.09765C5.26562 4.94335 5.42578 4.79882 5.58984 4.66015C5.66211 4.60155 5.70312 4.51171 5.70312 4.41992V3.04687C5.70312 2.92382 5.56641 2.84765 5.46289 2.91601C3.13476 4.41406 1.59375 7.03515 1.60156 10.0137C1.61328 14.6934 5.41211 18.4453 10.0859 18.3984C14.6855 18.3516 18.3984 14.6055 18.3984 9.99218C18.3984 7.02148 16.8594 4.4121 14.5371 2.91601C14.4336 2.8496 14.2969 2.92382 14.2969 3.04687ZM9.87695 1.31054L7.68945 4.08202C7.60742 4.18554 7.68164 4.33593 7.8125 4.33593H9.29687V10.4687C9.29687 10.5547 9.36719 10.625 9.45312 10.625H10.5469C10.6328 10.625 10.7031 10.5547 10.7031 10.4687V4.33593H12.1875C12.3184 4.33593 12.3926 4.18359 12.3105 4.08202L10.123 1.31054C10.1084 1.29186 10.0898 1.27676 10.0684 1.26637C10.0471 1.25599 10.0237 1.25059 10 1.25059C9.97628 1.25059 9.95288 1.25599 9.93156 1.26637C9.91024 1.27676 9.89157 1.29186 9.87695 1.31054Z" fill="white"/>
</svg>
