<svg width="20" height="20" viewBox="0 0 20 20" fill="none" xmlns="http://www.w3.org/2000/svg">
<g id="ic:outline-assignment">
<path id="Vector" d="M5.83333 12.5H11.6667V14.1667H5.83333V12.5ZM5.83333 9.16667H14.1667V10.8333H5.83333V9.16667ZM5.83333 5.83333H14.1667V7.5H5.83333V5.83333ZM15.8333 2.5H12.35C12 1.53333 11.0833 0.833334 10 0.833334C8.91667 0.833334 8 1.53333 7.65 2.5H4.16667C4.05 2.5 3.94167 2.50833 3.83333 2.53333C3.56793 2.58902 3.32003 2.70837 3.11099 2.88112C2.90195 3.05387 2.73803 3.27484 2.63333 3.525C2.55 3.71667 2.5 3.93333 2.5 4.16667V15.8333C2.5 16.0583 2.55 16.2833 2.63333 16.4833C2.71667 16.6833 2.84167 16.8583 2.99167 17.0167C3.21667 17.2417 3.50833 17.4083 3.83333 17.475C3.94167 17.4917 4.05 17.5 4.16667 17.5H15.8333C16.75 17.5 17.5 16.75 17.5 15.8333V4.16667C17.5 3.25 16.75 2.5 15.8333 2.5ZM10 2.29167C10.3417 2.29167 10.625 2.575 10.625 2.91667C10.625 3.25833 10.3417 3.54167 10 3.54167C9.65833 3.54167 9.375 3.25833 9.375 2.91667C9.375 2.575 9.65833 2.29167 10 2.29167ZM15.8333 15.8333H4.16667V4.16667H15.8333V15.8333Z" fill="#AF0A59"/>
</g>
</svg>
