<svg width="14" height="11" viewBox="0 0 14 11" fill="none" xmlns="http://www.w3.org/2000/svg">
<path id="Vector" d="M6.20676 0.292786C6.01923 0.105315 5.76492 0 5.49976 0C5.23459 0 4.98028 0.105315 4.79276 0.292786L0.292756 4.79279C0.105285 4.98031 -3.05176e-05 5.23462 -3.05176e-05 5.49979C-3.05176e-05 5.76495 0.105285 6.01926 0.292756 6.20679L4.79276 10.7068C4.98136 10.8889 5.23396 10.9897 5.49616 10.9875C5.75835 10.9852 6.00917 10.88 6.19457 10.6946C6.37998 10.5092 6.48515 10.2584 6.48743 9.99619C6.48971 9.73399 6.38891 9.48139 6.20676 9.29279L3.49976 6.49979H12.9998C13.265 6.49979 13.5193 6.39443 13.7069 6.20689C13.8944 6.01936 13.9998 5.765 13.9998 5.49979C13.9998 5.23457 13.8944 4.98022 13.7069 4.79268C13.5193 4.60514 13.265 4.49979 12.9998 4.49979H3.49976L6.20676 1.70679C6.39423 1.51926 6.49954 1.26495 6.49954 0.999786C6.49954 0.734622 6.39423 0.480314 6.20676 0.292786Z" fill="#170F49"/>
</svg>
